<?xml version="1.0" encoding="UTF-8" standalone="no"?>
<svg xmlns="http://www.w3.org/2000/svg" width="1774" height="887" viewBox="0 0 1774 887" role="img" aria-label="Ralwyn logo outlined transparent">
  <title>Ralwyn logo</title>
  <desc>Transparent background with white Ralwyn wordmark and gold underline.</desc>
  <path d="M 1240 372 L 1213 372 L 1213 374 L 1192 416 L 1192 418 L 1171 459 L 1170 463 L 1168 465 L 1166 463 L 1154 439 L 1154 437 L 1141 412 L 1141 410 L 1132 393 L 1123 372 L 1093 372 L 1095 378 L 1111 409 L 1111 411 L 1126 440 L 1126 442 L 1131 450 L 1131 452 L 1152 493 L 1152 496 L 1124 551 L 1149 551 Z M 906 504 L 924 504 L 964 415 L 966 416 L 970 424 L 984 459 L 1004 504 L 1022 504 L 1057 427 L 1057 425 L 1082 372 L 1053 372 L 1026 439 L 1019 453 L 1017 460 L 1014 464 L 1002 436 L 1000 434 L 996 422 L 991 413 L 990 408 L 986 401 L 974 372 L 951 372 L 953 380 L 955 383 L 954 387 L 919 464 L 916 461 L 914 454 L 901 426 L 900 421 L 890 400 L 879 372 L 848 372 Z M 1390 388 L 1380 378 L 1367 371 L 1355 368 L 1332 368 L 1310 374 L 1296 382 L 1284 392 L 1283 391 L 1283 372 L 1255 372 L 1255 504 L 1283 504 L 1284 499 L 1284 414 L 1294 403 L 1304 396 L 1313 392 L 1326 389 L 1339 389 L 1348 391 L 1359 397 L 1366 405 L 1371 417 L 1371 426 L 1372 427 L 1372 504 L 1400 504 L 1400 420 L 1399 419 L 1399 411 L 1397 403 Z M 641 378 L 641 398 L 657 392 L 677 388 L 692 387 L 693 388 L 710 389 L 722 394 L 728 399 L 732 404 L 734 409 L 735 419 L 734 420 L 695 419 L 694 420 L 684 420 L 683 421 L 670 422 L 649 429 L 640 435 L 632 445 L 628 457 L 628 474 L 633 487 L 637 492 L 648 500 L 663 505 L 668 505 L 669 506 L 694 506 L 715 501 L 725 496 L 735 489 L 736 490 L 736 504 L 764 504 L 764 415 L 761 400 L 754 387 L 745 379 L 734 373 L 712 368 L 673 369 L 672 370 L 662 371 Z M 735 437 L 735 468 L 726 477 L 715 483 L 705 486 L 697 486 L 696 487 L 678 486 L 672 484 L 664 479 L 658 470 L 658 457 L 661 451 L 667 445 L 674 441 L 695 436 L 734 436 Z M 429 308 L 429 504 L 460 504 L 460 434 L 461 433 L 509 433 L 572 504 L 612 504 L 545 432 L 547 429 L 561 426 L 579 416 L 591 403 L 596 393 L 600 375 L 599 360 L 595 346 L 588 334 L 577 323 L 563 315 L 541 309 L 533 309 L 532 308 Z M 460 333 L 461 332 L 525 332 L 526 333 L 533 333 L 542 335 L 550 339 L 562 350 L 565 355 L 567 362 L 568 375 L 566 384 L 562 392 L 552 402 L 545 406 L 535 409 L 530 409 L 529 410 L 461 410 L 460 409 Z M 796 306 L 796 503 L 797 504 L 824 504 L 824 306 Z" fill="#FFFFFF" fill-rule="evenodd"/>
  <path d="M 1174 550 L 1175 551 L 1384 551 L 1385 550 L 1389 550 L 1390 551 L 1395 551 L 1396 550 L 1400 550 L 1400 545 L 1177 545 L 1176 546 L 1176 547 L 1175 548 L 1175 549 Z M 822 549 L 918 549 L 919 550 L 918 551 L 862 551 L 1103 551 L 1105 549 L 1105 548 L 1106 547 L 1106 546 L 1107 545 L 900 545 L 916 545 L 917 546 L 916 547 L 839 547 L 872 547 L 873 548 L 872 549 Z M 429 545 L 429 550 L 430 551 L 757 551 L 662 551 L 661 550 L 662 549 L 768 549 L 724 549 L 723 548 L 724 547 L 753 547 L 659 547 L 658 546 L 659 545 L 691 545 Z" fill="#D2A968" fill-rule="evenodd"/>
</svg>